<mxfile host="Electron" modified="2024-04-17T20:18:04.894Z" agent="Mozilla/5.0 (Windows NT 10.0; Win64; x64) AppleWebKit/537.36 (KHTML, like Gecko) draw.io/24.2.5 Chrome/120.0.6099.109 Electron/28.1.0 Safari/537.36" etag="JttxQG5kD5BJ2Em1XVUn" scale="1" border="0" version="24.2.5" type="device">
  <diagram name="Page-1" id="qPSxW7D2yFV_Xe5P6E8P">
    <mxGraphModel dx="1290" dy="629" grid="0" gridSize="10" guides="1" tooltips="1" connect="1" arrows="1" fold="1" page="1" pageScale="1" pageWidth="1169" pageHeight="827" math="0" shadow="0">
      <root>
        <mxCell id="0" />
        <mxCell id="1" parent="0" />
        <mxCell id="O3pePAC8wXpVwLeQrTAs-2" value="Context Diagram&amp;nbsp;&lt;br style=&quot;font-size: 20px;&quot;&gt;Library Management System" style="text;html=1;align=center;verticalAlign=middle;resizable=0;points=[];autosize=1;strokeColor=none;fillColor=none;fontStyle=1;fontSize=20;" parent="1" vertex="1">
          <mxGeometry x="440" y="70" width="290" height="60" as="geometry" />
        </mxCell>
        <mxCell id="O3pePAC8wXpVwLeQrTAs-4" value="" style="group" parent="1" vertex="1" connectable="0">
          <mxGeometry x="17" y="168" width="1140" height="623.2900000000001" as="geometry" />
        </mxCell>
        <mxCell id="XqLzsYDsnyS6kK-KGQqA-3" value="&lt;font style=&quot;font-size: 18px;&quot; face=&quot;Verdana&quot;&gt;&lt;b style=&quot;font-size: 18px;&quot;&gt;Library management system&lt;/b&gt;&lt;/font&gt;" style="ellipse;whiteSpace=wrap;html=1;movable=1;resizable=1;rotatable=1;deletable=1;editable=1;locked=0;connectable=1;container=0;fontSize=18;" parent="O3pePAC8wXpVwLeQrTAs-4" vertex="1">
          <mxGeometry x="498" y="156.99702903536536" width="242.25" height="192.57465253887432" as="geometry" />
        </mxCell>
        <mxCell id="DH00FvAJnnbW6bKAE-SL-2" style="edgeStyle=orthogonalEdgeStyle;rounded=0;orthogonalLoop=1;jettySize=auto;html=1;exitX=0.5;exitY=1;exitDx=0;exitDy=0;entryX=0;entryY=1;entryDx=0;entryDy=0;" parent="O3pePAC8wXpVwLeQrTAs-4" source="XqLzsYDsnyS6kK-KGQqA-5" target="XqLzsYDsnyS6kK-KGQqA-3" edge="1">
          <mxGeometry relative="1" as="geometry" />
        </mxCell>
        <mxCell id="DAH1wKKM-QWOaFqPa0QI-1" style="edgeStyle=orthogonalEdgeStyle;rounded=0;orthogonalLoop=1;jettySize=auto;html=1;exitX=1;exitY=0.25;exitDx=0;exitDy=0;entryX=0;entryY=0;entryDx=0;entryDy=0;" parent="O3pePAC8wXpVwLeQrTAs-4" source="XqLzsYDsnyS6kK-KGQqA-5" target="XqLzsYDsnyS6kK-KGQqA-3" edge="1">
          <mxGeometry relative="1" as="geometry">
            <Array as="points">
              <mxPoint x="534" y="113" />
              <mxPoint x="534" y="165" />
            </Array>
          </mxGeometry>
        </mxCell>
        <mxCell id="XqLzsYDsnyS6kK-KGQqA-5" value="&lt;font style=&quot;font-size: 20px;&quot;&gt;Library Members&lt;br style=&quot;font-size: 20px;&quot;&gt;&lt;/font&gt;" style="rounded=0;whiteSpace=wrap;html=1;container=0;fontSize=20;" parent="O3pePAC8wXpVwLeQrTAs-4" vertex="1">
          <mxGeometry y="90.22815467180408" width="148.20000000000002" height="93.07774872712258" as="geometry" />
        </mxCell>
        <mxCell id="PlGmfiSZm8DJ5U56nJp8-26" style="edgeStyle=orthogonalEdgeStyle;rounded=0;orthogonalLoop=1;jettySize=auto;html=1;exitX=0;exitY=0.25;exitDx=0;exitDy=0;entryX=0.5;entryY=0;entryDx=0;entryDy=0;" parent="O3pePAC8wXpVwLeQrTAs-4" source="PlGmfiSZm8DJ5U56nJp8-3" target="XqLzsYDsnyS6kK-KGQqA-3" edge="1">
          <mxGeometry relative="1" as="geometry" />
        </mxCell>
        <mxCell id="PlGmfiSZm8DJ5U56nJp8-30" style="edgeStyle=orthogonalEdgeStyle;rounded=0;orthogonalLoop=1;jettySize=auto;html=1;exitX=0.5;exitY=1;exitDx=0;exitDy=0;entryX=1;entryY=0.5;entryDx=0;entryDy=0;" parent="O3pePAC8wXpVwLeQrTAs-4" source="PlGmfiSZm8DJ5U56nJp8-3" target="XqLzsYDsnyS6kK-KGQqA-3" edge="1">
          <mxGeometry relative="1" as="geometry" />
        </mxCell>
        <mxCell id="PlGmfiSZm8DJ5U56nJp8-3" value="&lt;font style=&quot;font-size: 20px;&quot;&gt;Librarian&lt;br style=&quot;font-size: 20px;&quot;&gt;&lt;/font&gt;" style="rounded=0;whiteSpace=wrap;html=1;container=0;fontSize=20;" parent="O3pePAC8wXpVwLeQrTAs-4" vertex="1">
          <mxGeometry x="954.75" y="13.198293656254293" width="185.25" height="77.02986101554973" as="geometry" />
        </mxCell>
        <mxCell id="PlGmfiSZm8DJ5U56nJp8-5" value="&lt;font style=&quot;font-size: 20px;&quot;&gt;&lt;font style=&quot;font-size: 20px;&quot;&gt;Book Request&lt;/font&gt;&lt;br style=&quot;font-size: 20px;&quot;&gt;&lt;/font&gt;" style="text;html=1;align=center;verticalAlign=middle;resizable=0;points=[];autosize=1;strokeColor=none;fillColor=none;rotation=0;container=0;fontSize=20;" parent="O3pePAC8wXpVwLeQrTAs-4" vertex="1">
          <mxGeometry x="269.00376106194693" y="83.00250034402086" width="144" height="36" as="geometry" />
        </mxCell>
        <mxCell id="PlGmfiSZm8DJ5U56nJp8-17" value="Book, Return Date" style="text;html=1;align=center;verticalAlign=middle;resizable=0;points=[];autosize=1;strokeColor=none;fillColor=none;container=0;fontSize=20;" parent="O3pePAC8wXpVwLeQrTAs-4" vertex="1">
          <mxGeometry x="212.99716814159297" y="215.9985963946608" width="190" height="40" as="geometry" />
        </mxCell>
        <mxCell id="PlGmfiSZm8DJ5U56nJp8-27" value="&amp;nbsp;Member Info" style="text;html=1;align=center;verticalAlign=middle;resizable=0;points=[];autosize=1;strokeColor=none;fillColor=none;container=0;fontSize=20;" parent="O3pePAC8wXpVwLeQrTAs-4" vertex="1">
          <mxGeometry x="723.5376106194691" width="136" height="36" as="geometry" />
        </mxCell>
        <mxCell id="PlGmfiSZm8DJ5U56nJp8-34" value="&lt;font style=&quot;font-size: 16px;&quot;&gt;Reports&lt;br style=&quot;font-size: 16px;&quot;&gt;(Members, Reservations, Books)&lt;/font&gt;" style="text;html=1;align=center;verticalAlign=middle;resizable=0;points=[];autosize=1;strokeColor=none;fillColor=none;container=0;fontSize=16;" parent="O3pePAC8wXpVwLeQrTAs-4" vertex="1">
          <mxGeometry x="760.2470353982302" y="274.00270675657043" width="251" height="50" as="geometry" />
        </mxCell>
        <mxCell id="DH00FvAJnnbW6bKAE-SL-3" value="Book Available List" style="text;html=1;align=center;verticalAlign=middle;resizable=0;points=[];autosize=1;strokeColor=none;fillColor=none;container=0;fontSize=20;" parent="O3pePAC8wXpVwLeQrTAs-4" vertex="1">
          <mxGeometry x="201.0037610619469" y="286.0049277556076" width="186" height="36" as="geometry" />
        </mxCell>
        <mxCell id="DAH1wKKM-QWOaFqPa0QI-4" style="edgeStyle=orthogonalEdgeStyle;rounded=0;orthogonalLoop=1;jettySize=auto;html=1;exitX=0.5;exitY=1;exitDx=0;exitDy=0;entryX=0.25;entryY=1;entryDx=0;entryDy=0;" parent="O3pePAC8wXpVwLeQrTAs-4" source="XqLzsYDsnyS6kK-KGQqA-3" target="XqLzsYDsnyS6kK-KGQqA-5" edge="1">
          <mxGeometry relative="1" as="geometry">
            <Array as="points">
              <mxPoint x="619" y="407" />
              <mxPoint x="37" y="407" />
            </Array>
          </mxGeometry>
        </mxCell>
        <mxCell id="DH00FvAJnnbW6bKAE-SL-4" style="edgeStyle=orthogonalEdgeStyle;rounded=0;orthogonalLoop=1;jettySize=auto;html=1;exitX=0;exitY=0.5;exitDx=0;exitDy=0;entryX=0.75;entryY=1;entryDx=0;entryDy=0;" parent="O3pePAC8wXpVwLeQrTAs-4" source="XqLzsYDsnyS6kK-KGQqA-3" target="XqLzsYDsnyS6kK-KGQqA-5" edge="1">
          <mxGeometry relative="1" as="geometry">
            <mxPoint x="128.25" y="186.5154809412412" as="targetPoint" />
          </mxGeometry>
        </mxCell>
        <mxCell id="DH00FvAJnnbW6bKAE-SL-7" value="Book Reservation Order" style="text;html=1;align=center;verticalAlign=middle;resizable=0;points=[];autosize=1;strokeColor=none;fillColor=none;container=0;fontSize=20;" parent="O3pePAC8wXpVwLeQrTAs-4" vertex="1">
          <mxGeometry x="215.149778761062" y="21.64703453970003" width="240" height="40" as="geometry" />
        </mxCell>
        <mxCell id="DH00FvAJnnbW6bKAE-SL-8" style="edgeStyle=elbowEdgeStyle;rounded=0;orthogonalLoop=1;jettySize=auto;elbow=vertical;html=1;exitX=0.788;exitY=-0.002;exitDx=0;exitDy=0;entryX=0.3;entryY=0.042;entryDx=0;entryDy=0;entryPerimeter=0;exitPerimeter=0;" parent="O3pePAC8wXpVwLeQrTAs-4" source="XqLzsYDsnyS6kK-KGQqA-5" target="XqLzsYDsnyS6kK-KGQqA-3" edge="1">
          <mxGeometry relative="1" as="geometry">
            <mxPoint x="198.07500000000002" y="149.60533920462365" as="sourcePoint" />
            <mxPoint x="574.275" y="138.37181780652259" as="targetPoint" />
            <Array as="points">
              <mxPoint x="384.75" y="58.13237924865825" />
              <mxPoint x="470.25" y="58.13237924865825" />
              <mxPoint x="470.25" y="58.13237924865825" />
            </Array>
          </mxGeometry>
        </mxCell>
        <mxCell id="DH00FvAJnnbW6bKAE-SL-9" value="&lt;font style=&quot;font-size: 20px;&quot;&gt;Library Manager&lt;/font&gt;" style="rounded=0;whiteSpace=wrap;html=1;container=0;fontSize=13;" parent="O3pePAC8wXpVwLeQrTAs-4" vertex="1">
          <mxGeometry x="958" y="527.002673730563" width="171" height="96.28732626943716" as="geometry" />
        </mxCell>
        <mxCell id="DAH1wKKM-QWOaFqPa0QI-3" style="edgeStyle=orthogonalEdgeStyle;rounded=0;orthogonalLoop=1;jettySize=auto;html=1;exitX=1;exitY=1;exitDx=0;exitDy=0;entryX=0.5;entryY=0;entryDx=0;entryDy=0;" parent="O3pePAC8wXpVwLeQrTAs-4" source="XqLzsYDsnyS6kK-KGQqA-3" target="DH00FvAJnnbW6bKAE-SL-9" edge="1">
          <mxGeometry relative="1" as="geometry" />
        </mxCell>
        <mxCell id="DAH1wKKM-QWOaFqPa0QI-5" value="Reservation Notification" style="text;html=1;align=center;verticalAlign=middle;resizable=0;points=[];autosize=1;strokeColor=none;fillColor=none;fontSize=20;" parent="O3pePAC8wXpVwLeQrTAs-4" vertex="1">
          <mxGeometry x="191" y="375" width="229" height="36" as="geometry" />
        </mxCell>
        <mxCell id="DAH1wKKM-QWOaFqPa0QI-6" value="Book Info" style="text;html=1;align=center;verticalAlign=middle;resizable=0;points=[];autosize=1;strokeColor=none;fillColor=none;container=0;fontSize=20;" parent="O3pePAC8wXpVwLeQrTAs-4" vertex="1">
          <mxGeometry x="849.9976106194691" y="220" width="103" height="36" as="geometry" />
        </mxCell>
      </root>
    </mxGraphModel>
  </diagram>
</mxfile>
